<svg xmlns="http://www.w3.org/2000/svg"  viewBox="0 0 64 64" width="64px" height="64px" ><path fill="#ffffff" d="M 13 6 C 9.15 6 6 9.15 6 13 L 6 51 C 6 54.85 9.15 58 13 58 L 51 58 C 54.85 58 58 54.85 58 51 L 58 13 C 58 9.15 54.85 6 51 6 L 13 6 z M 18.400391 8 L 23.513672 8 L 8 39.941406 L 8 38.105469 L 18.400391 8 z M 29.255859 8 L 51 8 C 53.77 8 56 10.23 56 13 L 56 51 C 56 53.77 53.77 56 51 56 L 13 56 C 10.23 56 8 53.77 8 51 L 8 42.382812 L 11.75 36.316406 L 11.75 46 L 15 46 L 15 39.333984 L 18.75 46 L 21.75 46 L 22 46 L 22 34 L 18.75 34 L 18.75 40.666016 L 15 34 L 13.181641 34 L 21.625 20.34375 L 21.625 32 L 25 32 L 25 27 L 29 27 L 29 24 L 25 24 L 25 21 L 30 21 L 30 18 L 25 18 L 23.074219 18 L 29.255859 8 z M 12.708984 8.0136719 L 8 30.478516 L 8 13 C 8 10.328444 10.076505 8.1644851 12.708984 8.0136719 z M 36.5 18 C 32.91 18 30 21.13 30 25 C 30 28.87 32.91 32 36.5 32 C 40.09 32 43 28.87 43 25 C 43 21.13 40.09 18 36.5 18 z M 42 18 L 46 25 L 42 32 L 46 32 L 48 28.5 L 50 32 L 54 32 L 50 25 L 54 18 L 50 18 L 48 21.5 L 46 18 L 42 18 z M 36.5 21 C 37.33 21 38 21.67 38 22.5 L 38 27.5 C 38 28.33 37.33 29 36.5 29 C 35.67 29 35 28.33 35 27.5 L 35 22.5 C 35 21.67 35.67 21 36.5 21 z M 50.25 33.5 C 47.788 33.5 46 35.077 46 37.25 C 46 39.562 48.118063 40.435266 49.664062 41.072266 C 50.351063 41.355266 51.498047 41.828203 51.498047 42.158203 C 51.498047 42.835203 50.624047 42.908203 50.248047 42.908203 C 49.893047 42.908203 49.301594 42.909594 48.808594 41.308594 L 45.941406 42.191406 C 46.887406 45.263406 48.806 45.908203 50.25 45.908203 C 52.752 45.908203 54.5 44.367156 54.5 42.160156 C 54.5 39.822156 52.366594 38.942781 50.808594 38.300781 C 50.176594 38.039781 49 37.555953 49 37.251953 C 49 36.510953 50.199 36.501953 50.25 36.501953 C 50.605 36.501953 51.347922 36.828234 51.544922 37.615234 L 54.455078 36.886719 C 53.905078 34.687719 51.878 33.5 50.25 33.5 z M 23 34 L 23 46 L 26 46 L 30.625 46 L 31 43 L 26 43 L 26 41.5 L 30 41.5 L 30 38.5 L 26 38.5 L 26 37 L 31 37 L 30.625 34 L 26 34 L 23 34 z M 31 34 L 34 46 L 37 46 L 38.5 40 L 40 46 L 43 46 L 46 34 L 43 34 L 41.5 40 L 40 34 L 37 34 L 35.5 40 L 34 34 L 31 34 z M 12 48 C 11.448 48 11 48.448 11 49 L 11 51 C 11 51.552 11.448 52 12 52 C 12.552 52 13 51.552 13 51 L 13 49 C 13 48.448 12.552 48 12 48 z M 17 48 C 16.448 48 16 48.448 16 49 L 16 51 C 16 51.552 16.448 52 17 52 C 17.552 52 18 51.552 18 51 L 18 49 C 18 48.448 17.552 48 17 48 z M 22 48 C 21.448 48 21 48.448 21 49 L 21 51 C 21 51.552 21.448 52 22 52 C 22.552 52 23 51.552 23 51 L 23 49 C 23 48.448 22.552 48 22 48 z M 27 48 C 26.448 48 26 48.448 26 49 L 26 51 C 26 51.552 26.448 52 27 52 C 27.552 52 28 51.552 28 51 L 28 49 C 28 48.448 27.552 48 27 48 z M 32 48 C 31.448 48 31 48.448 31 49 L 31 51 C 31 51.552 31.448 52 32 52 C 32.552 52 33 51.552 33 51 L 33 49 C 33 48.448 32.552 48 32 48 z M 37 48 C 36.448 48 36 48.448 36 49 L 36 51 C 36 51.552 36.448 52 37 52 C 37.552 52 38 51.552 38 51 L 38 49 C 38 48.448 37.552 48 37 48 z M 42 48 C 41.448 48 41 48.448 41 49 L 41 51 C 41 51.552 41.448 52 42 52 C 42.552 52 43 51.552 43 51 L 43 49 C 43 48.448 42.552 48 42 48 z M 47 48 C 46.448 48 46 48.448 46 49 L 46 51 C 46 51.552 46.448 52 47 52 C 47.552 52 48 51.552 48 51 L 48 49 C 48 48.448 47.552 48 47 48 z M 52 48 C 51.448 48 51 48.448 51 49 L 51 51 C 51 51.552 51.448 52 52 52 C 52.552 52 53 51.552 53 51 L 53 49 C 53 48.448 52.552 48 52 48 z"/></svg>