<?xml version="1.0"?><svg xmlns="http://www.w3.org/2000/svg" fill="#fffff"  viewBox="0 0 50 50" width="50px" height="50px">    <path  fill="#ffffff" d="M 0 14 L 0 15 L 0 36 L 8 36 L 9 36 L 15 36 L 17 36 L 25.875 36 C 28.15 36 30.331 34.926 31.5 33.125 C 33.458 34.93 36.127 36 39 36 C 45.065 36 50 31.065 50 25 C 50 18.935 45.065 14 39 14 C 36.127 14 33.458 15.07 31.5 16.875 C 30.331 15.074 28.15 14 25.875 14 L 17 14 L 15 14 L 9 14 L 8 14 L 0 14 z M 2 16 L 7 16 L 7 23 L 10 23 L 10 16 L 15 16 L 15 34 L 10 34 L 10 27 L 7 27 L 7 34 L 2 34 L 2 16 z M 17 16 L 25.875 16 C 28.429 16 30.875 18.071 30.875 20.625 L 30.875 20.875 C 32.378 18.001 35.532 16 39 16 C 43.971 16 48 20.029 48 25 C 48 29.971 43.971 34 39 34 C 35.532 34 32.378 31.999 30.875 29.125 L 30.875 29.375 C 30.875 31.929 28.429 34 25.875 34 L 17 34 L 17 16 z M 39 19 C 35.698136 19 33 21.698136 33 25 C 33 28.301864 35.698136 31 39 31 C 42.301864 31 45 28.301864 45 25 C 45 21.698136 42.301864 19 39 19 z M 22 20 L 22 23 L 24.25 23 C 25.078 23 25.75 22.328 25.75 21.5 C 25.75 20.672 25.078 20 24.25 20 L 22 20 z M 39 21 C 41.220984 21 43 22.779016 43 25 C 43 27.220984 41.220984 29 39 29 C 36.779016 29 35 27.220984 35 25 C 35 22.779016 36.779016 21 39 21 z M 39 23 A 2 2 0 0 0 37 25 A 2 2 0 0 0 39 27 A 2 2 0 0 0 41 25 A 2 2 0 0 0 39 23 z M 30.09375 23.75 C 29.75875 24.16 29.125 24.75 28.125 25 C 29.125 25.25 29.71175 25.672 30.09375 26.25 C 29.95775 25.745 29.97675 24.257 30.09375 23.75 z M 22 26.75 L 22 29.75 L 24.25 29.75 C 25.078 29.75 25.75 29.078 25.75 28.25 C 25.75 27.422 25.078 26.75 24.25 26.75 L 22 26.75 z"/></svg>